<?xml version="1.0" encoding="utf-8"?>
<!-- Generator: Adobe Illustrator 23.0.3, SVG Export Plug-In . SVG Version: 6.00 Build 0)  -->
<svg version="1.1" id="Capa_1" xmlns="http://www.w3.org/2000/svg" xmlns:xlink="http://www.w3.org/1999/xlink" x="0px" y="0px"
	 viewBox="0 0 161 104" style="enable-background:new 0 0 161 104;" xml:space="preserve">
<style type="text/css">
	.st0{fill:none;stroke:#92C8B8;stroke-width:2.1725;stroke-miterlimit:10;}
	.st1{fill:none;stroke:#568AA5;stroke-width:2.1725;stroke-miterlimit:10;}
	.st2{fill:#568AA5;}
	.st3{font-family:'Weekly-SemiBold';}
	.st4{font-size:9.7764px;}
	.st5{font-family:'CoreSansG-Regular';}
	.st6{font-size:17.0182px;}
</style>
<g>
	<g>
		<ellipse class="st0" cx="73.27" cy="50.89" rx="50.54" ry="49.13"/>
		<circle class="st1" cx="73.3" cy="50.89" r="49.13"/>
	</g>
	<path class="st2" d="M21.94,57.94c0,0-5.97,2.9-2.67,12.27c3.23,9.16,4.05,15.89,16,11.09c0.62-0.25,1.15-0.7,1.5-1.28
		c1.48-2.46,5.78-8.82-3.5-17.63c0,0-2.73-1.9,1.75-0.18c0,0,3.83,0.37-2.24-1.85c0,0-2.71-1.14-0.16-0.74
		c3.49,0.54,0.42-1.51-0.62-1.69c-3.08-0.88-5.85,0.57-6.49-1.6c0,0-0.87-20.46,5.68-23.56c0.22-0.11,0.27-0.41,0.09-0.58
		c-0.41-0.4-1.1-0.85,0.15-1.51c1.95-1.04,2.63-3.02,1.24-6.23c-1.05-2.42-2.49-8.15-3.92-7.51c-0.17,0.07-0.77,0.13-0.95,0.08
		c-0.81-0.22-3.25-0.94-3.67,0.21c-0.43,1.17-3.65,0.45-3.65,0.45s-4.68-1.36-7.78,3.89c0,0-1.59,1.8-3.12,5.34
		c-0.66,1.41-2.16,2.74-2.75,3.38c-0.2,0.22-0.59,0.86-0.77,2.2c-0.45,3.4-0.12,9.77,3.09,13.53c0.27,0.32,0.5,0.67,0.7,1.03
		c0.66,1.23,1.91,3.64,3.09,3.47c1.27-0.18,0.95,0.77-0.59,0.63s1.74,2.55,1.74,2.55s1.27,0.88,0.35,0.84
		c-1.46-0.05,0.2,0.73,0.65,0.93c0.07,0.03,0.14,0.05,0.21,0.06c0.37,0.06,1.15,0.07,0.65,0.61c-0.25,0.63,1.72,0.34,2.78-1.11
		c0.82-1.12-0.6-0.67-0.6-0.67s-1.6,0.6,1.12-1.12c1.82-1.15,1.47-1.54,1.05-1.68c-0.17-0.05-0.23-0.26-0.11-0.4
		c0.9-0.98,3.13-4.02-0.37-7c0,0-0.95-1.54,0.36-2.58c1.31-1.04-0.63-1.36-1-0.36c-0.36,1-1.72-0.23-0.54-1.09
		c0,0,1.36,0.54,1.81-1.04c0.45-1.58,0.36-3.17,2.22-2.58s0,5.11,0,5.11s-1.49,12.94-0.27,13.9c0,0-2.26-1.9-4.35,1.86
		s2.94,0.54,2.94,0.54S23.23,56.98,21.94,57.94z"/>
	<path class="st2" d="M3,27.88c-1.3-2.14,1.48-3.79,3.02-3.95c0,0,1.57-0.36-0.13-0.72c-0.91-0.19,0.25-2.56,0.25-2.56
		s1.99-3.46,3.77-1.52c2.08,2.08,1.99,6.99-2.63,4.81c-0.4-0.19,0.59,0.76,1.29,1.67C9.5,26.78,6.25,33.23,3,27.88z"/>
	<path class="st2" d="M10.79,12.55c-1.13,0.28-3.17,1.48-2.99,3.59c0.18,2.11,3.74,2.99,4.41,2.99c0.91,0,3.21-0.93,1.36-4.56
		C13.18,13.8,13.14,11.96,10.79,12.55z"/>
	<path class="st2" d="M17.82,10.69c0,1.84-1.09,3.58-2.92,2.73c-1.03-0.48-2.75-1.44-2.36-3.01c0.42-1.68,1.61-2.69,2.96-2.69
		S17.82,9.14,17.82,10.69z"/>
	<path class="st2" d="M29.16,10.84c1.32,2.56,0.88,5.45-4.25,5.09c-2.93-0.21-6.28-1.03-5.66-5.25c0.38-2.64,1.18-4.47,3.43-4.47
		C25.18,6.21,27.66,7.93,29.16,10.84z"/>
	<g>
		<path class="st2" d="M119.09,79.33c0,0-0.88,0.18-5.16-1.44c-0.99-0.45-0.49-1.37,0.6-0.95c1.53,0.52,1.84,1.15,2.68,1.49
			C118.83,79.09,119.09,79.33,119.09,79.33z"/>
		<g>
			<path class="st2" d="M97.93,83.59c-0.17,0.24-0.27,0.43-0.76,0.25c-2.1-0.79-11.49-4.39-7.78-9.14c4.1-5.25,9.35,4.04,9.35,4.04
				s0.51,0.53,1.12,1.12c0.25,0.25,0.83,0.27,0.83,0.27s0.06,0.57,0.11,0.61c0.3,0.27,0.58,0.51,0.78,0.65
				c1.4,0.96,7.72,2.84,3.87,6.52c-0.17,0.16-0.88,0.36-1.24-0.01c-0.3-0.3-1.8-1.94-2.56-2.32c-1.06-0.52-2.63-1.2-3.26-1.33
				c-0.3-0.06-0.16-0.19-0.09-0.29c0.3-0.39,0.89-1.24,0.69-1.39C98.79,82.44,98.26,83.13,97.93,83.59z"/>
			<path class="st2" d="M107.28,91.19c0.34,1.28,2.19,2.82,2.19,4.54c0,1.11,2.64,6.48,7.69,5.48c5.25-1.04,5.68-6.6,5.16-7.35
				c-0.53-0.75,1.16-2.99,1.04,0c-0.12,2.99-1.33,6.73-1.93,6.85c-0.49,0.1,1.45,0.04,2.23,0.01c0.15-0.01,0.25-0.15,0.2-0.29
				c-0.2-0.56-0.46-1.71,1.23-0.76c1.81,1.02,2.49,1.63,2.62,1.77c0.03,0.03,0.05,0.06,0.09,0.08c0.73,0.46,8.43,5.07,12.1-4.25
				c3.84-9.75,10.42-26.12-6.57-26.25c-0.08,0-0.16-0.03-0.23-0.07c-0.6-0.45-3.8-2.77-5.51-2.73c-1.65,0.04-5.16,1.14-6.04,1.43
				c-0.14,0.05-0.3-0.02-0.37-0.16c-0.14-0.29-0.22-0.86,0.66-1.58c1.31-1.09-12.85,1.99-5.48,8.1c1.89,1.57,8.35,5.18,8.35,5.18
				c0.08,0.05,0.16,0.07,0.25,0.07c0.72-0.01,4.14-0.05,3.53,0.27c-0.68,0.36-0.59,0.41,0.09,0.36c0.66-0.04,5.01-0.08,1.29,0.63
				c-0.2,0.04-0.25,0.3-0.08,0.4c0.39,0.24,1.28,0.54,3.32,0.64c3.58,0.18,0.24,0.42-0.47,0.42c-1.16,0.15-5.46-1.41-5.83-1.19
				c-0.36,0.23,3.95,4.58,4.39,4.98c0.53,0.38,1.09,3.3-1.72-0.23c-2.79-3.5-5.93-7.59-13.68-3.89c-0.16,0.08-0.33,0-0.37-0.18
				c-0.18-0.78,6.4-2.26,6.4-2.26s0.64-0.13-0.65-0.55c-0.37-0.13-0.47-1.39-1.21-0.88c-0.45,0.32-1.61,0.93-2.55,0.82
				c-1.82-0.21-7.63-4.3-7.4,1.22c0,0,0.51,2.43,0.05,3.03C109.04,86.2,105.94,86.12,107.28,91.19z"/>
			<path class="st2" d="M116.24,60.89c0,0-1.68,1.21-1.47,2.72c0.2,1.45,1.57,3.98,3.47,4c2.24,0.03,1.44-3.71,0.85-6.18
				c-0.33-1.4,0.5-3.22,1.01-4.17c0.23-0.42,0.2-0.93-0.05-1.33c-0.76-1.19-1.88-3.72-3.62-3.79c0,0-2.55-0.86-1.21-1.84
				c0.63-0.46,1.32-0.48,1.93,0.01c0.25,0.2,0.63,0.03,0.64-0.3c0.1-3.37,0.05-15.27-5.83-10.43c-0.65,1.1-0.88,4.71,0.47,5.77
				c0.16,0.13,0.26,0.31,0.26,0.51c0.03,1.02,0.07,3.93-0.21,5.22c-0.06,0.26,0.12,0.5,0.39,0.52l0.99,0.06c0,0,1.09,0,0.27,1
				c-0.81,1-1.21,2.02-0.72,2.81c-0.09,0.97-0.63,3.26,0.72,3.98c0.97,0.52,1.85,0.11,2.27-0.17c0.14-0.09,0.34-0.03,0.39,0.14
				C116.92,59.84,116.99,60.56,116.24,60.89z"/>
			<path class="st2" d="M125.16,65.31c-0.81-1.14-2.16-3.66-0.57-5.97c0,0,2.63-0.77,0.45-1.13c0,0-1.37,0.09-1.19-3.71l0.54-3.58
				c0,0,0.06-2.17,2.32-1.36l0.84,0.21c0.25,0.06,0.47,0.24,0.57,0.48c0.18,0.4,0.36,0.77,1.04,0.89c0.59,0.11,0.27-0.61-0.91-1.31
				c0,0-2.59-0.87-2.99-1.13c-0.48-0.32-1.36,0.09-0.05-4.8c0.03-0.11,0.05-0.23,0.06-0.35c0.08-0.95,0.28-4.6,0.89-5.62
				c0.03-0.05,4.48-3.25,6.09,1.15c0.07,0.18,0.09,0.37,0.09,0.56c-0.01,1.98-1.12,14.37-2.01,18.54c-0.05,0.23-0.3,0.35-0.51,0.25
				c-0.99-0.46-2.85-1.26-2.05,0.33c0,0,2.82,0.37,1.09,4.65c-0.79,1.97-1.62,1.91-2.3,2.26C126.09,65.93,125.48,65.77,125.16,65.31
				z"/>
			<path class="st2" d="M136.04,59.98c0,0-3.86,3.71-0.97,6.91c5.22,3.41,4.77-4.44,4.77-4.44l-0.27-1.77
				c-0.02-0.11,0.07-0.22,0.19-0.22h0.59c0.17,0,0.33-0.09,0.42-0.23c0.84-1.38,5.02-8.45,3.1-9.12c-1.08-0.38-0.56-1.09-0.16-1.15
				c0.58-0.09,1.78,0.5,1.84-1.37c0.06-1.78,1.09-3.86,1.19-4.06c0.01-0.01,0.01-0.02,0.02-0.04c0.13-0.33,2.02-5.83-2.62-5.83
				c-4.96,0-4.64,8.63-4.6,10.26c0,0.17,0.14,0.32,0.31,0.32l1.96,0.1c0.1,0.04,0.15,0.15,0.11,0.25c-0.17,0.38-0.49,1.26,0.17,1.38
				c0.86,0.15,0.43,0.46,0.43,0.46s-1.02-0.44-2.16-1.47c-1.15-1.03-2.56,0.02-3.1,2.03c-0.53,1.96-0.92,4.03-0.88,5.78
				c0,0.08,0.06,0.15,0.14,0.17c0.56,0.13,2.67,0.66,2.14,1.19c-0.72,0.57-2.03-0.91-2.39-0.78c-0.19,0.39,2.25,1.76,2.25,1.76
				c0.05,0.04,0.08,0.08,0.1,0.13c0.2,0.45,1.09,2.57-0.54,0.46C136.28,58.35,136.04,59.98,136.04,59.98z"/>
			<path class="st2" d="M149.05,66.21c0.22,0.39,0.24,0.85,0.05,1.26c-0.97,2.04-4.1,7.94-6.4,3.97c-1.29-2.22-2.54-2.66,3.8-8.02
				c0.22-0.19,0.4-0.43,0.5-0.71c0.42-1.12,1.94-4.73,4.59-5.87c0.39-0.17,0.81-0.45,0.83-0.88c0.19-3.9,4.94-9.27,6.48-3.67
				c0.5,1.81-0.9,8.07-3.44,5.52c-1.63-1.63-0.16,0.68-0.16,0.68s1.66,1.92-1.15,0.51c0,0-0.63-0.31,0.44,0.61
				c1.27,1.09-2.75,7.69-5.01,6.38c0,0-1.86-2.13-1.13-0.86C148.71,65.6,148.91,65.95,149.05,66.21z"/>
		</g>
	</g>
	<g>
		<text transform="matrix(1.01 0 0 1 36.9219 34.0767)" class="st2 st3 st4">PODÓLOGOS</text>
		<text transform="matrix(1.01 0 0 1 36.9219 43.7422)" class="st2 st3 st4">FISIOTERAPIA</text>
		<text transform="matrix(1.01 0 0 1 103.0957 34.0767)" class="st2 st3 st4">Y</text>
	</g>
	<text transform="matrix(1 0 0 1 40.4229 65.9316)" class="st2 st5 st6">Legazpi</text>
</g>
</svg>
